# xmcd
#
# Track frame offsets: 
#        150
#        23276
#        37763
#        59078
#        78852
#        98201
#        123624
#        144938
#        161262
#        182201
#        200274
#        216677
#        233104
#        256807
#        275049
#        292453
#        306682
#        327444
#
# Disc length: 4599 seconds
#
# Revision: 0
# Processed by: cddbd v1.5.2PL0 Copyright (c) Steve Scherf et al.
# Submitted via: ExactAudioCopy v0.99pb5
#
DISCID=1111f512
DTITLE=Various Artist - Faves - Disc 4
DYEAR=1900
DGENRE=Alternative
TTITLE0=Neil Young - Are You Passionate?
TTITLE1=The Police - Roxanne
TTITLE2=Joe Cocker - Don't Let Me Be Misunderstood
TTITLE3=Black Sabbath - The Wizard
TTITLE4=The Cranberries - Dreams
TTITLE5=Devotchka - How It Ends
TTITLE6=Tom Waits - Heartattack And Vine
TTITLE7=Cowboy Junkies - Sweet Jane
TTITLE8=Ben Folds Five - Brick
TTITLE9=The Police - Don't Stand so Close to Me
TTITLE10=The Go-Betweens - Streets of Your Town
TTITLE11=The Beach Boys - Good Vibrations
TTITLE12=David Bowie - Space Oddity
TTITLE13=Moby - Porcelain
TTITLE14=Daniel Lanois - Sleeping In The Devil's Bed
TTITLE15=T-Bone Burnett - Humans From Earth
TTITLE16=The Cranberries - Linger
TTITLE17=Gin Blossoms - Found Out About You
EXTD=
EXTT0=
EXTT1=
EXTT2=
EXTT3=
EXTT4=
EXTT5=
EXTT6=
EXTT7=
EXTT8=
EXTT9=
EXTT10=
EXTT11=
EXTT12=
EXTT13=
EXTT14=
EXTT15=
EXTT16=
EXTT17=
PLAYORDER=
